<svg xmlns="http://www.w3.org/2000/svg" xmlns:xlink="http://www.w3.org/1999/xlink" version="1.1" id="Layer_1" x="0px" y="0px" width="100%" viewBox="0 0 1920 1080" enable-background="new 0 0 1920 1080" xml:space="preserve">
<path fill="#FFFFFF" opacity="1.000000" stroke="none" d=" M1294.000000,1081.000000   C862.666748,1081.000000 431.833496,1081.000000 1.000173,1081.000000   C1.000116,721.000122 1.000116,361.000275 1.000058,1.000212   C2.166525,1.000000 3.333050,1.000000 4.499575,1.000000   C643.332825,1.000000 1282.166016,1.000000 1920.999512,1.000000   C1920.999634,360.999664 1920.999634,720.999329 1920.999756,1080.999512   C1712.166626,1081.000000 1503.333374,1081.000000 1294.000000,1081.000000  M1876.998657,204.334473   C1876.997437,203.888474 1876.996338,203.442490 1876.995728,202.248245   C1876.995605,201.499985 1876.995361,200.751724 1876.999268,199.065460   C1876.990601,175.501358 1876.978271,151.937271 1876.975342,128.373169   C1876.973999,117.879646 1876.995117,107.386116 1876.998901,96.892593   C1877.003296,84.733246 1877.006958,72.573891 1876.997192,60.414558   C1876.992065,54.021553 1876.978882,54.003441 1870.593994,54.002754   C1821.456909,53.997475 1772.319824,53.989628 1723.182739,54.041771   C1721.454834,54.043606 1719.727539,54.665203 1717.210449,54.984932   C1715.141968,54.658291 1713.073364,54.331654 1710.334961,54.001453   C1709.888306,54.002342 1709.441772,54.003231 1708.104248,54.003624   C1702.404419,54.003586 1696.704712,54.003548 1690.252441,54.000614   C1689.500000,54.001633 1688.747559,54.002647 1687.058472,54.003418   C1638.704346,54.007450 1590.350098,54.011482 1541.062744,54.009178   C1533.605347,54.338745 1526.145874,54.990799 1518.691040,54.940121   C1491.399292,54.754601 1464.109131,54.327908 1436.818115,54.011131   C1432.395996,53.959805 1427.972900,54.006031 1423.550171,54.005993   C1373.217041,54.005589 1322.883911,53.970451 1272.551392,54.139164   C1270.671875,54.145466 1268.090942,55.676617 1267.052246,57.283024   C1263.562134,62.681129 1260.665039,68.459579 1257.462036,74.047218   C1253.205078,81.473671 1252.531006,89.209854 1255.931396,97.020592   C1259.703369,105.684067 1263.295898,114.510132 1268.018799,122.655251   C1274.995850,134.687561 1281.888306,147.008774 1290.634399,157.723129   C1306.448853,177.096527 1326.942627,191.046341 1350.053467,200.218185   C1368.653198,207.599670 1387.937134,213.431000 1407.224731,218.857285   C1427.005127,224.422195 1447.190796,228.558197 1466.108765,236.906525   C1480.670776,243.332626 1490.853760,253.850372 1493.910645,269.667084   C1496.098145,280.985870 1497.257690,292.582031 1497.876099,304.108093   C1498.979126,324.664948 1499.089600,345.273590 1500.060181,365.839539   C1500.913452,383.918854 1505.574829,400.982544 1513.934937,417.220459   C1521.969482,432.826385 1534.149902,444.099274 1549.224731,451.897278   C1574.738037,465.094971 1590.820679,485.972351 1601.056641,511.987610   C1607.255493,527.742554 1612.648682,543.813538 1618.795654,559.589844   C1629.717285,587.620911 1649.203247,608.500854 1674.932861,623.300842   C1703.275879,639.604004 1734.350464,648.785217 1766.284912,654.870239   C1783.965820,658.239258 1801.828247,660.785889 1819.694702,663.013672   C1836.750732,665.140381 1853.926514,666.292236 1871.031494,668.049194   C1875.902710,668.549438 1877.108154,666.782471 1877.101929,662.000793   C1876.963013,555.001465 1876.989868,448.001923 1876.994385,340.064667   C1876.994629,299.377563 1876.994873,258.690491 1876.999268,217.127472   C1876.997803,215.083862 1876.996460,213.040253 1876.995483,210.140686   C1876.995361,208.428268 1876.995239,206.715866 1876.998657,204.334473  M191.146454,72.000977   C186.571777,72.000084 181.995132,71.911598 177.422821,72.015076   C164.807205,72.300606 152.192184,72.626694 139.579315,73.014244   C131.016922,73.277344 130.947327,75.324654 126.903923,82.403908   C121.734489,91.454620 121.663193,102.442360 114.972710,110.931282   C112.583488,113.962738 111.478867,118.567940 111.157486,122.564934   C110.100456,135.711487 109.184563,148.905151 109.092995,162.086807   C108.831543,199.724442 109.003258,237.365082 109.003998,275.941284   C109.003372,365.626709 109.002754,455.312134 108.999962,545.935425   C108.666847,565.720093 108.185379,585.503845 108.066734,605.289795   C108.012054,614.408508 108.619080,623.533630 109.028229,632.651306   C109.161201,635.614441 109.459808,638.590271 109.961075,641.512512   C110.928017,647.149597 114.689514,649.151611 119.982651,647.003296   C124.820503,645.039734 129.627350,642.998230 134.484512,641.084045   C141.027176,638.505676 148.082932,636.830750 154.067581,633.318237   C166.313965,626.130737 179.060059,619.725342 189.354019,609.358582   C197.628036,601.026001 205.298645,592.277832 212.422012,583.017151   C217.378204,576.573975 221.945419,569.831543 226.686371,563.222778   C227.122894,563.443298 227.559402,563.663757 227.995926,563.884216   C227.994614,571.142456 217.451080,574.343933 219.921646,583.857361   C224.945297,578.221436 229.958954,573.663879 233.615128,568.198364   C237.358948,562.601868 238.481033,555.567932 244.270386,550.842957   C247.250168,548.410950 248.459595,543.809875 250.469009,540.188965   C249.982483,539.800964 249.495972,539.413025 249.009445,539.025085   C246.571259,540.592651 244.133072,542.160278 241.694885,543.727844   C241.213928,543.310913 240.732971,542.893921 240.252014,542.476990   C241.530563,540.635620 242.716080,538.720154 244.110687,536.971375   C245.949097,534.666077 248.131866,532.620300 249.838699,530.228943   C252.051804,527.128296 253.844849,523.731079 255.989487,520.577698   C262.474762,511.041992 268.976685,501.516113 275.604980,492.079742   C279.103333,487.099426 282.873596,482.309845 286.555969,477.460632   C286.641327,477.348206 287.142914,477.551880 288.137360,477.733734   C287.372620,479.735260 286.992981,481.883057 285.861633,483.507080   C276.950867,496.297821 267.858368,508.961975 258.969299,521.767456   C258.353607,522.654358 258.923187,524.363953 258.941589,525.690979   C260.211090,525.223633 261.899292,525.109863 262.658142,524.211243   C264.006592,522.614441 264.629425,520.429199 265.839233,518.686890   C273.259827,508.000366 280.271667,496.972260 288.456238,486.900269   C292.104706,482.410522 294.940094,475.838043 302.343109,475.439514   C302.510132,475.430542 302.649292,474.903564 302.956116,474.328156   C301.989105,473.460022 300.975525,472.550079 299.765289,471.463562   C301.483490,468.469086 302.856201,465.492523 304.759338,462.906281   C307.191284,459.601379 310.542816,456.906403 312.630127,453.427765   C317.925995,444.601837 322.630493,435.429230 330.753845,428.665588   C333.513000,426.368286 335.973206,423.711975 339.203461,420.611786   C336.435455,417.085052 341.538971,413.782776 342.044861,409.032227   C339.944275,410.265015 337.843658,411.497833 335.743042,412.730652   C341.109192,401.012726 349.271973,391.944855 359.604584,384.683624   C353.639862,391.530029 347.029877,397.849396 343.148712,406.223114   C343.850342,406.629547 344.025116,406.810608 344.123413,406.775787   C345.631561,406.241333 347.129822,405.678833 348.602570,405.133148   C352.987579,409.031708 353.762695,408.913300 355.849365,403.798309   C354.605194,403.250214 353.350586,402.697479 351.131714,401.720001   C356.935852,395.785004 360.327789,388.296936 369.156799,386.917480   C370.032379,386.780670 370.863464,386.070312 371.618866,385.498840   C377.731873,380.874420 383.525879,375.737030 390.026611,371.749695   C394.110962,369.244446 399.237000,368.425568 403.913910,366.906250   C405.164459,366.499969 406.482666,366.302887 407.768555,366.004425   C411.885437,365.048767 416.006653,364.110107 420.106384,363.085876   C420.357147,363.023224 420.436676,362.275177 420.730225,361.483948   C418.436310,361.111511 416.358154,360.774109 414.279999,360.436737   C414.203369,359.897430 414.126709,359.358124 414.050049,358.818817   C416.738831,357.879822 419.389465,356.292969 422.124054,356.131989   C428.507568,355.756226 434.931671,356.046844 441.338257,356.141174   C441.753143,356.147278 442.158844,356.779083 442.478363,357.044586   C436.882782,361.137451 429.573151,356.470978 424.195343,361.563171   C430.824921,363.422119 437.428711,364.907654 444.045898,364.969788   C450.997894,365.035095 457.957733,363.228455 464.923065,363.161194   C474.054535,363.073059 483.194702,363.887207 492.201263,364.307190   C493.058746,365.307556 494.046722,367.561432 495.368042,367.777618   C498.325684,368.261475 501.502686,368.724365 503.887207,365.411530   C507.320129,360.642212 510.762238,360.061371 515.987915,362.479645   C517.138672,363.012207 518.359680,363.392914 519.615540,363.869019   C521.137939,361.768372 522.463684,359.939117 523.803406,358.090607   C522.355957,357.154053 521.163513,356.382477 519.971008,355.610901   C520.086243,355.252045 520.201477,354.893158 520.316711,354.534302   C523.044250,354.534302 525.771790,354.534302 528.761353,354.534302   C528.182373,356.078735 527.752014,357.226715 526.934021,359.408691   C531.156799,359.408691 534.760742,359.835388 538.219849,359.309448   C543.513611,358.504517 548.740356,357.164246 553.917969,355.764160   C555.041443,355.460327 555.836304,353.941437 556.782532,352.982178   C555.439941,352.522003 554.001526,351.495605 552.772034,351.703674   C548.388611,352.445496 544.103638,353.768738 539.720642,354.514740   C538.337708,354.750092 536.763977,353.865021 535.277588,353.492737   C535.311157,352.795593 535.344666,352.098450 535.378235,351.401306   C544.719910,349.804962 554.061584,348.208588 564.566040,346.413513   C562.522339,351.580933 563.647278,353.818665 567.643311,352.812317   C574.271484,351.143066 580.733765,348.818298 587.355896,347.120300   C590.238647,346.381073 593.343933,346.507751 596.348572,346.245972   C597.600647,346.136902 599.533997,346.520935 599.999573,345.862244   C603.917725,340.318512 610.635315,340.363068 615.891968,337.561035   C621.394470,334.628021 626.972900,331.831665 632.406067,328.776245   C636.950867,326.220398 641.643555,325.745148 646.512451,327.267853   C651.170776,328.724609 654.849915,325.727417 654.412109,320.705170   C654.332764,319.794800 654.296326,318.376831 654.821655,317.996674   C659.316956,314.743256 664.035889,311.774811 665.695374,305.942566   C665.832031,305.462189 666.749146,305.198822 667.310181,304.845032   C672.390930,301.641235 677.650574,298.684143 682.501526,295.163910   C686.747925,292.082397 690.761169,288.591553 694.448364,284.857819   C697.001709,282.272247 698.819214,278.961884 700.978271,275.984528   C702.639587,273.693329 704.218933,271.332825 706.013428,269.149994   C710.243286,264.004608 715.215637,259.344727 718.713623,253.753891   C723.159058,246.649017 725.663025,238.262787 730.484436,231.481491   C734.142639,226.336105 734.893005,221.212097 735.431213,215.610214   C734.839905,215.077866 734.248596,214.545502 733.657288,214.013153   C732.817505,216.341492 731.977661,218.669846 731.137878,220.998199   C730.474487,220.425522 729.811096,219.852859 729.147705,219.280182   C734.417664,201.280319 739.687622,183.280441 745.141174,164.653366   C746.361389,166.382858 747.154968,167.507629 747.971558,168.665009   C750.730957,166.292572 752.643127,164.009689 751.150879,160.083267   C750.491333,158.348068 750.378967,155.717575 751.254272,154.212173   C754.160217,149.214142 753.148193,144.018173 753.038879,138.781860   C752.885010,131.408142 753.140137,124.024292 752.902100,116.655067   C752.841431,114.777794 751.580200,112.939308 750.870605,111.083000   C750.395996,111.224533 749.921448,111.366074 749.446838,111.507607   C749.136658,113.490089 748.826416,115.472565 748.516235,117.455048   C748.056763,117.507736 747.597351,117.560432 747.137878,117.613121   C746.135376,112.430496 745.009644,107.265160 744.277039,102.044655   C744.178955,101.346031 746.146179,100.440857 747.015747,99.500656   C747.961182,98.478279 749.515503,97.264923 749.462708,96.201515   C749.207092,91.055931 748.758911,85.885757 747.838806,80.822487   C747.411743,78.472549 746.305725,75.322899 744.523926,74.364586   C742.025024,73.020584 738.618103,73.197586 735.583435,73.045174   C720.844421,72.304840 706.105225,71.339630 691.355835,71.105782   C679.577148,70.919037 667.783630,71.669113 655.059814,72.002960   C638.037415,72.006981 621.015076,72.011009 603.057922,72.009453   C490.707520,72.010735 378.357086,72.012009 265.068085,72.003372   C240.713669,72.003876 216.359268,72.004379 191.146454,72.000977  z"/>
<path fill="#F2F2FD" opacity="1.000000" stroke="none" d=" M1876.985352,341.002472   C1876.989868,448.001923 1876.963013,555.001465 1877.101929,662.000793   C1877.108154,666.782471 1875.902710,668.549438 1871.031494,668.049194   C1853.926514,666.292236 1836.750732,665.140381 1819.694702,663.013672   C1801.828247,660.785889 1783.965820,658.239258 1766.284912,654.870239   C1734.350464,648.785217 1703.275879,639.604004 1674.932861,623.300842   C1649.203247,608.500854 1629.717285,587.620911 1618.795654,559.589844   C1612.648682,543.813538 1607.255493,527.742554 1601.056641,511.987610   C1590.820679,485.972351 1574.738037,465.094971 1549.224731,451.897278   C1534.149902,444.099274 1521.969482,432.826385 1513.934937,417.220459   C1505.574829,400.982544 1500.913452,383.918854 1500.060181,365.839539   C1499.089600,345.273590 1498.979126,324.664948 1497.876099,304.108093   C1497.257690,292.582031 1496.098145,280.985870 1493.910645,269.667084   C1490.853760,253.850372 1480.670776,243.332626 1466.108765,236.906525   C1447.190796,228.558197 1427.005127,224.422195 1407.224731,218.857285   C1387.937134,213.431000 1368.653198,207.599670 1350.053467,200.218185   C1326.942627,191.046341 1306.448853,177.096527 1290.634399,157.723129   C1281.888306,147.008774 1274.995850,134.687561 1268.018799,122.655251   C1263.295898,114.510132 1259.703369,105.684067 1255.931396,97.020592   C1252.531006,89.209854 1253.205078,81.473671 1257.462036,74.047218   C1260.665039,68.459579 1263.562134,62.681129 1267.052246,57.283024   C1268.090942,55.676617 1270.671875,54.145466 1272.551392,54.139164   C1322.883911,53.970451 1373.217041,54.005589 1423.550171,54.005993   C1427.972900,54.006031 1432.395996,53.959805 1436.818115,54.011131   C1464.109131,54.327908 1491.399292,54.754601 1518.691040,54.940121   C1526.145874,54.990799 1533.605347,54.338745 1541.545898,54.419762   C1542.758667,55.544495 1543.407349,56.758110 1544.230957,56.891460   C1549.436646,57.734375 1554.690308,58.276722 1559.909180,59.046371   C1562.509277,59.429832 1564.345215,60.520916 1563.278198,63.745205   C1563.005127,64.570160 1563.339233,65.596100 1563.394409,66.529694   C1563.724609,66.234276 1564.054932,65.938858 1564.385254,65.643440   C1566.872437,67.438499 1571.207275,68.988754 1571.484009,71.076706   C1572.180664,76.334740 1576.109985,77.432961 1579.293945,80.038460   C1580.387939,78.642670 1581.270630,77.516434 1582.153320,76.390198   C1582.482666,76.567650 1582.812134,76.745094 1583.141479,76.922539   C1582.587280,78.687958 1582.033081,80.453377 1581.494019,82.170715   C1583.889648,86.563805 1587.265381,84.501007 1590.628662,83.758980   C1592.148071,83.423714 1593.896606,84.125984 1595.541138,84.357559   C1594.993164,85.772011 1594.671997,87.340790 1593.840332,88.562065   C1592.784912,90.112099 1591.315430,91.380127 1589.650269,93.172501   C1593.433716,94.040321 1596.377197,94.715462 1599.535156,95.439819   C1600.315674,94.133064 1601.186523,92.675049 1602.057373,91.217033   C1602.575562,91.287613 1603.093750,91.358200 1603.611938,91.428780   C1603.611938,93.197945 1603.025635,95.254578 1603.724976,96.680817   C1605.608398,100.522034 1608.024414,104.104347 1610.302612,107.743309   C1610.414551,107.921936 1611.241821,107.556244 1611.709229,107.624969   C1614.069824,107.971962 1616.421509,108.378929 1617.697632,108.588066   C1617.931030,111.855118 1617.367188,114.580933 1618.381104,115.436012   C1619.614502,116.476311 1622.175781,115.959389 1624.164673,116.081612   C1625.868286,116.186310 1627.574829,116.242416 1629.280151,116.320015   C1629.201172,117.964432 1629.122192,119.608856 1629.043213,121.253273   C1629.266602,121.076752 1629.489868,120.900223 1629.713257,120.723701   C1631.811890,124.146500 1633.910522,127.569298 1636.311401,131.484924   C1639.860229,128.424545 1642.434204,128.386932 1643.436401,133.393005   C1643.605957,134.239975 1645.198730,134.745285 1646.016602,135.530731   C1647.893188,137.332809 1649.669800,139.238876 1651.541016,141.046738   C1652.671753,142.138885 1653.742065,143.540878 1655.121826,144.078873   C1658.540771,145.412003 1662.122192,146.328506 1665.902588,147.493851   C1662.028442,152.293823 1665.531738,155.342606 1669.012085,158.406937   C1669.748901,159.055557 1670.673218,159.623398 1671.123779,160.441757   C1672.944336,163.747742 1674.712646,163.779709 1677.182373,160.958160   C1679.551392,158.251678 1682.214966,158.471390 1684.439087,160.543716   C1683.493286,163.204193 1682.348022,165.264648 1682.141724,167.415222   C1682.005005,168.840805 1683.213013,170.395386 1683.819092,171.892181   C1684.666626,170.747223 1685.514282,169.602295 1687.119751,167.433594   C1688.288086,170.430878 1689.248535,172.895020 1690.452271,175.983231   C1693.325562,176.432816 1697.003540,177.008347 1700.681519,177.583862   C1700.286499,177.945511 1699.891602,178.307159 1699.496704,178.668808   C1700.723999,180.728668 1701.925293,182.804657 1703.186890,184.843292   C1704.146729,186.394241 1705.490845,187.781097 1706.122559,189.446365   C1707.528931,193.154434 1709.468872,194.678268 1713.693481,193.369797   C1716.867920,192.386566 1719.885986,193.251587 1719.771484,196.085571   C1724.015747,199.280823 1727.399536,201.828400 1730.751953,204.352234   C1728.470337,209.999298 1728.770386,210.243393 1734.690796,210.201508   C1735.784546,210.193756 1737.948364,212.241241 1737.829224,213.088455   C1736.649902,221.472656 1746.823975,221.565552 1748.332153,227.834381   C1754.565918,227.554626 1756.737183,231.770355 1758.109375,238.367828   C1759.939575,235.651947 1760.991577,234.090759 1762.291748,232.161392   C1763.371704,233.771515 1764.448242,235.190323 1765.319336,236.725708   C1766.272827,238.406281 1767.036255,240.194626 1767.992798,242.162781   C1769.013550,241.683624 1769.710449,241.302490 1770.446167,241.022736   C1771.860718,240.484818 1773.296997,240.004288 1774.724365,239.499969   C1774.837524,240.849121 1774.677734,242.300095 1775.133301,243.521484   C1775.695679,245.028656 1776.457764,246.834747 1777.698364,247.625229   C1779.430664,248.729080 1781.685547,249.013016 1783.605347,249.612900   C1784.648315,257.675323 1785.969971,258.849823 1793.821899,260.085663   C1796.862549,260.564270 1799.794434,261.734589 1802.212524,262.428162   C1801.775757,266.795593 1801.382324,270.729767 1800.953491,275.017059   C1804.906006,273.596619 1807.534180,272.652161 1810.772705,271.488281   C1810.517944,274.648926 1810.359009,276.620026 1810.146118,279.261383   C1812.448975,278.414276 1813.894897,277.882416 1815.442505,277.313110   C1816.195190,279.913635 1816.873291,282.256134 1817.212891,283.429504   C1820.097778,284.382660 1822.765991,284.455719 1824.026245,285.824890   C1828.727173,290.930878 1832.091064,297.405548 1839.958496,298.784027   C1841.449463,299.045258 1842.761597,301.071136 1843.892090,302.492889   C1846.361816,305.599060 1848.662109,308.840149 1851.295044,312.380402   C1852.882812,312.282837 1855.182129,312.245239 1857.454224,311.977417   C1860.742798,311.589783 1862.127930,313.983978 1861.537720,316.157196   C1859.826172,322.458893 1864.828613,325.157288 1868.185791,327.598114   C1871.991821,330.365326 1874.036743,332.977905 1874.146484,337.600433   C1874.174072,338.756287 1875.990845,339.869629 1876.985352,341.002472  z"/>
<path fill="#F4EAF8" opacity="1.000000" stroke="none" d=" M266.006683,72.013290   C378.357086,72.012009 490.707520,72.010735 603.565369,72.365417   C606.242737,77.532402 608.484558,82.312561 610.565979,87.161522   C613.866394,94.850273 619.066162,101.942833 618.089050,111.016220   C617.997803,111.863594 618.991821,112.775513 619.139587,113.711525   C619.477112,115.849854 619.772095,118.022530 619.761353,120.179649   C619.752380,121.970695 618.846008,123.820557 619.086914,125.539299   C620.675964,136.877411 619.056152,147.236313 614.686523,158.213455   C610.911926,167.695755 605.821228,175.804657 599.800049,183.519897   C595.504639,189.023956 590.124207,193.708725 585.034302,198.555740   C581.623657,201.803726 578.213379,205.276154 574.202576,207.621490   C566.716492,211.999039 558.492371,215.144943 551.141418,219.714096   C544.526917,223.825500 537.534180,225.141724 530.065857,226.150635   C521.759521,227.272736 513.656250,229.837585 505.367676,231.172516   C499.573059,232.105759 493.618042,232.074951 487.729431,232.371399   C486.089935,232.453934 484.429230,232.039154 482.782928,232.073975   C474.082581,232.257965 465.384979,232.602020 456.684113,232.722137   C443.360809,232.906052 430.034882,232.898911 416.711884,233.096939   C413.586029,233.143387 410.474243,233.814713 407.344482,233.977509   C396.014069,234.566925 384.687378,235.002258 373.733948,238.524719   C370.951233,239.419586 367.769714,239.118027 365.029114,240.091599   C358.228424,242.507492 351.476349,245.118408 344.890503,248.066055   C336.895447,251.644455 328.926392,255.348724 321.253296,259.558441   C314.378784,263.330048 307.902802,267.832947 301.294250,272.080475   C299.927399,272.958984 298.671906,274.052185 297.500763,275.186493   C292.307007,280.217041 287.200592,285.338043 281.989960,290.350830   C276.706696,295.433502 271.286957,300.374939 266.035492,305.489655   C264.266479,307.212616 262.903625,309.344391 261.227875,311.172760   C256.021973,316.852661 250.771469,322.492004 245.503983,328.114960   C243.256516,330.514099 241.258133,333.350525 238.566147,335.090057   C231.187973,339.857758 224.558075,345.696472 219.549118,352.586212   C212.552948,362.209320 205.112915,370.581024 193.650070,374.805298   C190.891724,375.821777 187.620026,377.500275 186.267441,379.845123   C183.519455,384.609100 181.222809,386.792175 175.640244,385.906891   C171.170151,385.197998 168.691238,382.252960 167.864365,377.567139   C165.801941,365.879486 166.339432,354.287018 168.217560,342.656982   C168.598129,340.300446 167.858841,337.720673 168.433990,335.445618   C170.480270,327.351349 170.497314,318.631409 175.627533,311.434326   C176.129730,310.729797 175.838562,309.488831 176.007690,308.512817   C176.766113,304.136139 177.389526,299.726776 178.377975,295.401489   C179.772995,289.297089 181.444809,283.255859 183.002335,277.188690   C184.260696,272.286896 185.287704,267.310211 186.836639,262.501831   C189.943344,252.857819 193.166214,243.243393 196.666504,233.736542   C199.390350,226.338531 202.729691,219.169159 205.561890,211.808304   C207.459488,206.876465 208.707657,201.690720 210.675217,196.790771   C213.802109,189.003632 217.528976,181.453812 220.553635,173.630249   C223.691879,165.512909 225.944443,157.045944 229.222946,148.991821   C233.463699,138.573776 238.359161,128.423019 242.918976,118.133347   C243.785553,116.177879 244.303696,114.069260 245.149963,112.103340   C249.967636,100.911575 254.657333,89.658012 259.818970,78.625908   C261.035461,76.025848 263.900208,74.196953 266.006683,72.013290  z"/>
<path fill="#F8F2FB" opacity="1.000000" stroke="none" d=" M265.537384,72.008331   C263.900208,74.196953 261.035461,76.025848 259.818970,78.625908   C254.657333,89.658012 249.967636,100.911575 245.149963,112.103340   C244.303696,114.069260 243.785553,116.177879 242.918976,118.133347   C238.359161,128.423019 233.463699,138.573776 229.222946,148.991821   C225.944443,157.045944 223.691879,165.512909 220.553635,173.630249   C217.528976,181.453812 213.802109,189.003632 210.675217,196.790771   C208.707657,201.690720 207.459488,206.876465 205.561890,211.808304   C202.729691,219.169159 199.390350,226.338531 196.666504,233.736542   C193.166214,243.243393 189.943344,252.857819 186.836639,262.501831   C185.287704,267.310211 184.260696,272.286896 183.002335,277.188690   C181.444809,283.255859 179.772995,289.297089 178.377975,295.401489   C177.389526,299.726776 176.766113,304.136139 176.007690,308.512817   C175.838562,309.488831 176.129730,310.729797 175.627533,311.434326   C170.497314,318.631409 170.480270,327.351349 168.433990,335.445618   C167.858841,337.720673 168.598129,340.300446 168.217560,342.656982   C166.339432,354.287018 165.801941,365.879486 167.864365,377.567139   C168.691238,382.252960 171.170151,385.197998 175.640244,385.906891   C181.222809,386.792175 183.519455,384.609100 186.267441,379.845123   C187.620026,377.500275 190.891724,375.821777 193.650070,374.805298   C205.112915,370.581024 212.552948,362.209320 219.549118,352.586212   C224.558075,345.696472 231.187973,339.857758 238.566147,335.090057   C241.258133,333.350525 243.256516,330.514099 245.503983,328.114960   C250.771469,322.492004 256.021973,316.852661 261.227875,311.172760   C262.903625,309.344391 264.266479,307.212616 266.035492,305.489655   C271.286957,300.374939 276.706696,295.433502 281.989960,290.350830   C287.200592,285.338043 292.307007,280.217041 297.500763,275.186493   C298.671906,274.052185 299.927399,272.958984 301.294250,272.080475   C307.902802,267.832947 314.378784,263.330048 321.253296,259.558441   C328.926392,255.348724 336.895447,251.644455 344.890503,248.066055   C351.476349,245.118408 358.228424,242.507492 365.029114,240.091599   C367.769714,239.118027 370.951233,239.419586 373.733948,238.524719   C384.687378,235.002258 396.014069,234.566925 407.344482,233.977509   C410.474243,233.814713 413.586029,233.143387 416.711884,233.096939   C430.034882,232.898911 443.360809,232.906052 456.684113,232.722137   C465.384979,232.602020 474.082581,232.257965 482.782928,232.073975   C484.429230,232.039154 486.089935,232.453934 487.729431,232.371399   C493.618042,232.074951 499.573059,232.105759 505.367676,231.172516   C513.656250,229.837585 521.759521,227.272736 530.065857,226.150635   C537.534180,225.141724 544.526917,223.825500 551.141418,219.714096   C558.492371,215.144943 566.716492,211.999039 574.202576,207.621490   C578.213379,205.276154 581.623657,201.803726 585.034302,198.555740   C590.124207,193.708725 595.504639,189.023956 599.800049,183.519897   C605.821228,175.804657 610.911926,167.695755 614.686523,158.213455   C619.056152,147.236313 620.675964,136.877411 619.086914,125.539299   C618.846008,123.820557 619.752380,121.970695 619.761353,120.179649   C619.772095,118.022530 619.477112,115.849854 619.139587,113.711525   C618.991821,112.775513 617.997803,111.863594 618.089050,111.016220   C619.066162,101.942833 613.866394,94.850273 610.565979,87.161522   C608.484558,82.312561 606.242737,77.532402 604.032715,72.368210   C621.015076,72.011009 638.037415,72.006981 655.605225,72.376175   C656.476929,73.105583 656.808716,73.776901 657.128784,73.771408   C663.440308,73.662964 666.354675,76.503349 665.335693,82.947250   C665.271240,83.354584 665.724426,83.823036 665.859375,84.285660   C668.244690,92.463020 672.042725,100.534698 672.679993,108.848068   C673.803162,123.502266 673.234192,138.310822 672.838928,153.040390   C672.732361,157.011673 670.560059,160.897659 669.601929,164.886688   C668.989746,167.435272 669.457642,170.371353 668.411133,172.663406   C665.357239,179.352127 661.138428,185.559784 658.552124,192.400574   C653.125732,206.753647 642.202148,217.269852 633.348877,229.115280   C628.466736,235.647476 620.651428,240.126068 613.778931,244.994736   C606.244324,250.332504 598.421692,255.309143 590.442078,259.958374   C584.564636,263.382782 578.322266,266.232819 572.073181,268.949310   C567.823792,270.796539 563.321655,272.106689 558.861572,273.415161   C551.046448,275.708008 543.263916,278.238251 535.304810,279.877869   C527.739197,281.436462 519.963806,281.972198 512.283569,282.980316   C509.992065,283.281097 507.712921,283.934021 505.424103,283.953552   C493.682983,284.053833 481.940582,283.997131 470.198608,284.001099   C460.593231,284.004333 450.960663,283.566650 441.389893,284.146027   C431.226715,284.761292 421.123474,286.356476 410.991394,287.500366   C406.512543,288.006042 401.961670,289.183167 397.557404,288.787476   C385.827972,287.733704 375.547241,292.042358 365.276978,296.526093   C363.242554,297.414307 361.867065,299.736542 359.869598,300.799866   C355.256287,303.255646 350.165985,304.899719 345.778900,307.677948   C337.340424,313.021820 329.230347,318.888184 321.055206,324.639008   C320.029144,325.360840 319.517395,326.773163 318.620056,327.727020   C316.729065,329.737274 314.696106,331.613800 312.800476,333.619934   C307.854950,338.853729 302.926727,344.104370 298.041290,349.394226   C294.958099,352.732635 292.036530,356.222198 288.908020,359.516205   C286.307983,362.253754 283.212097,364.564819 280.867035,367.490570   C276.493713,372.946838 272.543213,378.740082 268.347778,384.341431   C264.319672,389.719391 260.196991,395.026398 256.129333,400.374847   C252.849442,404.687408 249.503006,408.952911 246.338989,413.349335   C239.857880,422.354919 233.586182,431.512909 227.014816,440.451233   C223.605331,445.088684 219.520142,449.230713 216.130585,453.881073   C210.331665,461.837067 204.920120,470.074188 199.195404,478.085724   C193.697128,485.780426 188.107208,493.414886 182.353134,500.919067   C180.086884,503.874603 178.576248,507.110931 174.030426,508.600555   C170.225922,509.847290 165.944931,514.322998 164.907608,518.183777   C163.509705,523.386536 160.299896,526.173401 156.606995,528.621826   C153.492462,530.686768 149.578400,532.458984 145.952805,532.593079   C142.018524,532.738647 139.145599,534.151978 138.326996,537.258545   C137.357086,540.939331 135.331879,541.112244 132.514511,541.005859   C129.301392,540.884583 126.675873,540.999084 124.634201,544.634094   C123.210648,547.168701 119.854805,549.091858 116.056618,547.382507   C113.803665,546.368591 111.360031,545.778320 109.002136,544.997559   C109.002754,455.312134 109.003372,365.626709 109.398560,275.382019   C110.195648,273.655518 110.741936,272.516510 110.977348,271.316528   C112.491371,263.599121 113.483658,255.746643 115.515968,248.171585   C118.303566,237.781296 121.470566,227.452789 125.204582,217.367920   C128.772675,207.731232 133.317032,198.458344 137.350449,188.990692   C139.639877,183.616776 142.576752,178.719803 143.444702,172.507385   C144.348633,166.037384 148.076523,159.959412 150.587250,153.717102   C153.393082,146.741104 156.311584,139.808792 159.009949,132.791672   C161.795532,125.547661 164.144165,118.128838 167.110001,110.962830   C170.106857,103.721832 174.113327,96.873924 176.780350,89.528084   C179.479965,82.092468 181.680481,74.808670 191.093994,73.619209   C191.459778,73.572990 191.703995,72.564819 192.004852,72.004883   C216.359268,72.004379 240.713669,72.003876 265.537384,72.008331  M179.515244,397.219666   C180.777832,395.979736 182.040421,394.739807 183.610382,393.197998   C175.273895,392.496185 167.958389,391.880310 160.318466,391.237122   C160.019104,394.163544 160.494141,398.039886 164.664185,398.509949   C169.286469,399.031006 174.087067,397.970184 179.515244,397.219666  z"/>
<path fill="#FCFAFD" opacity="1.000000" stroke="none" d=" M109.001045,545.466492   C111.360031,545.778320 113.803665,546.368591 116.056618,547.382507   C119.854805,549.091858 123.210648,547.168701 124.634201,544.634094   C126.675873,540.999084 129.301392,540.884583 132.514511,541.005859   C135.331879,541.112244 137.357086,540.939331 138.326996,537.258545   C139.145599,534.151978 142.018524,532.738647 145.952805,532.593079   C149.578400,532.458984 153.492462,530.686768 156.606995,528.621826   C160.299896,526.173401 163.509705,523.386536 164.907608,518.183777   C165.944931,514.322998 170.225922,509.847290 174.030426,508.600555   C178.576248,507.110931 180.086884,503.874603 182.353134,500.919067   C188.107208,493.414886 193.697128,485.780426 199.195404,478.085724   C204.920120,470.074188 210.331665,461.837067 216.130585,453.881073   C219.520142,449.230713 223.605331,445.088684 227.014816,440.451233   C233.586182,431.512909 239.857880,422.354919 246.338989,413.349335   C249.503006,408.952911 252.849442,404.687408 256.129333,400.374847   C260.196991,395.026398 264.319672,389.719391 268.347778,384.341431   C272.543213,378.740082 276.493713,372.946838 280.867035,367.490570   C283.212097,364.564819 286.307983,362.253754 288.908020,359.516205   C292.036530,356.222198 294.958099,352.732635 298.041290,349.394226   C302.926727,344.104370 307.854950,338.853729 312.800476,333.619934   C314.696106,331.613800 316.729065,329.737274 318.620056,327.727020   C319.517395,326.773163 320.029144,325.360840 321.055206,324.639008   C329.230347,318.888184 337.340424,313.021820 345.778900,307.677948   C350.165985,304.899719 355.256287,303.255646 359.869598,300.799866   C361.867065,299.736542 363.242554,297.414307 365.276978,296.526093   C375.547241,292.042358 385.827972,287.733704 397.557404,288.787476   C401.961670,289.183167 406.512543,288.006042 410.991394,287.500366   C421.123474,286.356476 431.226715,284.761292 441.389893,284.146027   C450.960663,283.566650 460.593231,284.004333 470.198608,284.001099   C481.940582,283.997131 493.682983,284.053833 505.424103,283.953552   C507.712921,283.934021 509.992065,283.281097 512.283569,282.980316   C519.963806,281.972198 527.739197,281.436462 535.304810,279.877869   C543.263916,278.238251 551.046448,275.708008 558.861572,273.415161   C563.321655,272.106689 567.823792,270.796539 572.073181,268.949310   C578.322266,266.232819 584.564636,263.382782 590.442078,259.958374   C598.421692,255.309143 606.244324,250.332504 613.778931,244.994736   C620.651428,240.126068 628.466736,235.647476 633.348877,229.115280   C642.202148,217.269852 653.125732,206.753647 658.552124,192.400574   C661.138428,185.559784 665.357239,179.352127 668.411133,172.663406   C669.457642,170.371353 668.989746,167.435272 669.601929,164.886688   C670.560059,160.897659 672.732361,157.011673 672.838928,153.040390   C673.234192,138.310822 673.803162,123.502266 672.679993,108.848068   C672.042725,100.534698 668.244690,92.463020 665.859375,84.285660   C665.724426,83.823036 665.271240,83.354584 665.335693,82.947250   C666.354675,76.503349 663.440308,73.662964 657.128784,73.771408   C656.808716,73.776901 656.476929,73.105583 656.073669,72.376373   C667.783630,71.669113 679.577148,70.919037 691.355835,71.105782   C706.105225,71.339630 720.844421,72.304840 735.583435,73.045174   C738.618103,73.197586 742.025024,73.020584 744.523926,74.364586   C746.305725,75.322899 747.411743,78.472549 747.838806,80.822487   C748.758911,85.885757 749.207092,91.055931 749.462708,96.201515   C749.515503,97.264923 747.961182,98.478279 747.015747,99.500656   C746.146179,100.440857 744.178955,101.346031 744.277039,102.044655   C745.009644,107.265160 746.135376,112.430496 747.137878,117.613121   C747.597351,117.560432 748.056763,117.507736 748.516235,117.455048   C748.826416,115.472565 749.136658,113.490089 749.446838,111.507607   C749.921448,111.366074 750.395996,111.224533 750.870605,111.083000   C751.580200,112.939308 752.841431,114.777794 752.902100,116.655067   C753.140137,124.024292 752.885010,131.408142 753.038879,138.781860   C753.148193,144.018173 754.160217,149.214142 751.254272,154.212173   C750.378967,155.717575 750.491333,158.348068 751.150879,160.083267   C752.643127,164.009689 750.730957,166.292572 747.971558,168.665009   C747.154968,167.507629 746.361389,166.382858 745.141174,164.653366   C739.687622,183.280441 734.417664,201.280319 729.147705,219.280182   C729.811096,219.852859 730.474487,220.425522 731.137878,220.998199   C731.977661,218.669846 732.817505,216.341492 733.657288,214.013153   C734.248596,214.545502 734.839905,215.077866 735.431213,215.610214   C734.893005,221.212097 734.142639,226.336105 730.484436,231.481491   C725.663025,238.262787 723.159058,246.649017 718.713623,253.753891   C715.215637,259.344727 710.243286,264.004608 706.013428,269.149994   C704.218933,271.332825 702.639587,273.693329 700.978271,275.984528   C698.819214,278.961884 697.001709,282.272247 694.448364,284.857819   C690.761169,288.591553 686.747925,292.082397 682.501526,295.163910   C677.650574,298.684143 672.390930,301.641235 667.310181,304.845032   C666.749146,305.198822 665.832031,305.462189 665.695374,305.942566   C664.035889,311.774811 659.316956,314.743256 654.821655,317.996674   C654.296326,318.376831 654.332764,319.794800 654.412109,320.705170   C654.849915,325.727417 651.170776,328.724609 646.512451,327.267853   C641.643555,325.745148 636.950867,326.220398 632.406067,328.776245   C626.972900,331.831665 621.394470,334.628021 615.891968,337.561035   C610.635315,340.363068 603.917725,340.318512 599.999573,345.862244   C599.533997,346.520935 597.600647,346.136902 596.348572,346.245972   C593.343933,346.507751 590.238647,346.381073 587.355896,347.120300   C580.733765,348.818298 574.271484,351.143066 567.643311,352.812317   C563.647278,353.818665 562.522339,351.580933 564.566040,346.413513   C554.061584,348.208588 544.719910,349.804962 535.378235,351.401306   C535.344666,352.098450 535.311157,352.795593 535.277588,353.492737   C536.763977,353.865021 538.337708,354.750092 539.720642,354.514740   C544.103638,353.768738 548.388611,352.445496 552.772034,351.703674   C554.001526,351.495605 555.439941,352.522003 556.782532,352.982178   C555.836304,353.941437 555.041443,355.460327 553.917969,355.764160   C548.740356,357.164246 543.513611,358.504517 538.219849,359.309448   C534.760742,359.835388 531.156799,359.408691 526.934021,359.408691   C527.752014,357.226715 528.182373,356.078735 528.761353,354.534302   C525.771790,354.534302 523.044250,354.534302 520.316711,354.534302   C520.201477,354.893158 520.086243,355.252045 519.971008,355.610901   C521.163513,356.382477 522.355957,357.154053 523.803406,358.090607   C522.463684,359.939117 521.137939,361.768372 519.615540,363.869019   C518.359680,363.392914 517.138672,363.012207 515.987915,362.479645   C510.762238,360.061371 507.320129,360.642212 503.887207,365.411530   C501.502686,368.724365 498.325684,368.261475 495.368042,367.777618   C494.046722,367.561432 493.058746,365.307556 492.201263,364.307190   C483.194702,363.887207 474.054535,363.073059 464.923065,363.161194   C457.957733,363.228455 450.997894,365.035095 444.045898,364.969788   C437.428711,364.907654 430.824921,363.422119 424.195343,361.563171   C429.573151,356.470978 436.882782,361.137451 442.478363,357.044586   C442.158844,356.779083 441.753143,356.147278 441.338257,356.141174   C434.931671,356.046844 428.507568,355.756226 422.124054,356.131989   C419.389465,356.292969 416.738831,357.879822 414.050049,358.818817   C414.126709,359.358124 414.203369,359.897430 414.279999,360.436737   C416.358154,360.774109 418.436310,361.111511 420.730225,361.483948   C420.436676,362.275177 420.357147,363.023224 420.106384,363.085876   C416.006653,364.110107 411.885437,365.048767 407.768555,366.004425   C406.482666,366.302887 405.164459,366.499969 403.913910,366.906250   C399.237000,368.425568 394.110962,369.244446 390.026611,371.749695   C383.525879,375.737030 377.731873,380.874420 371.618866,385.498840   C370.863464,386.070312 370.032379,386.780670 369.156799,386.917480   C360.327789,388.296936 356.935852,395.785004 351.131714,401.720001   C353.350586,402.697479 354.605194,403.250214 355.849365,403.798309   C353.762695,408.913300 352.987579,409.031708 348.602570,405.133148   C347.129822,405.678833 345.631561,406.241333 344.123413,406.775787   C344.025116,406.810608 343.850342,406.629547 343.148712,406.223114   C347.029877,397.849396 353.639862,391.530029 359.604584,384.683624   C349.271973,391.944855 341.109192,401.012726 335.743042,412.730652   C337.843658,411.497833 339.944275,410.265015 342.044861,409.032227   C341.538971,413.782776 336.435455,417.085052 339.203461,420.611786   C335.973206,423.711975 333.513000,426.368286 330.753845,428.665588   C322.630493,435.429230 317.925995,444.601837 312.630127,453.427765   C310.542816,456.906403 307.191284,459.601379 304.759338,462.906281   C302.856201,465.492523 301.483490,468.469086 299.765289,471.463562   C300.975525,472.550079 301.989105,473.460022 302.956116,474.328156   C302.649292,474.903564 302.510132,475.430542 302.343109,475.439514   C294.940094,475.838043 292.104706,482.410522 288.456238,486.900269   C280.271667,496.972260 273.259827,508.000366 265.839233,518.686890   C264.629425,520.429199 264.006592,522.614441 262.658142,524.211243   C261.899292,525.109863 260.211090,525.223633 258.941589,525.690979   C258.923187,524.363953 258.353607,522.654358 258.969299,521.767456   C267.858368,508.961975 276.950867,496.297821 285.861633,483.507080   C286.992981,481.883057 287.372620,479.735260 288.137360,477.733734   C287.142914,477.551880 286.641327,477.348206 286.555969,477.460632   C282.873596,482.309845 279.103333,487.099426 275.604980,492.079742   C268.976685,501.516113 262.474762,511.041992 255.989487,520.577698   C253.844849,523.731079 252.051804,527.128296 249.838699,530.228943   C248.131866,532.620300 245.949097,534.666077 244.110687,536.971375   C242.716080,538.720154 241.530563,540.635620 240.252014,542.476990   C240.732971,542.893921 241.213928,543.310913 241.694885,543.727844   C244.133072,542.160278 246.571259,540.592651 249.009445,539.025085   C249.495972,539.413025 249.982483,539.800964 250.469009,540.188965   C248.459595,543.809875 247.250168,548.410950 244.270386,550.842957   C238.481033,555.567932 237.358948,562.601868 233.615128,568.198364   C229.958954,573.663879 224.945297,578.221436 219.921646,583.857361   C217.451080,574.343933 227.994614,571.142456 227.995926,563.884216   C227.559402,563.663757 227.122894,563.443298 226.686371,563.222778   C221.945419,569.831543 217.378204,576.573975 212.422012,583.017151   C205.298645,592.277832 197.628036,601.026001 189.354019,609.358582   C179.060059,619.725342 166.313965,626.130737 154.067581,633.318237   C148.082932,636.830750 141.027176,638.505676 134.484512,641.084045   C129.627350,642.998230 124.820503,645.039734 119.982651,647.003296   C114.689514,649.151611 110.928017,647.149597 109.961075,641.512512   C109.459808,638.590271 109.161201,635.614441 109.028229,632.651306   C108.619080,623.533630 108.012054,614.408508 108.066734,605.289795   C108.185379,585.503845 108.666847,565.720093 109.001045,545.466492  M698.172913,266.652283   C687.642517,277.166138 677.177856,287.747223 666.533447,298.144379   C664.018250,300.601135 660.896057,302.435547 658.058350,304.563293   C655.359863,306.586639 652.668335,308.619263 649.973755,310.647827   C650.304810,311.070862 650.635864,311.493896 650.966980,311.916931   C661.794800,307.943512 669.928833,299.927826 678.488525,292.669556   C682.762573,289.045288 685.750000,283.807129 690.222473,280.532318   C701.147766,272.532501 706.887817,260.649017 714.375854,250.084641   C718.845947,243.778122 722.836365,237.122681 726.839355,230.501358   C727.670471,229.126678 727.605774,227.210449 727.953918,225.543808   C727.200806,225.101212 726.447754,224.658615 725.694702,224.216003   C724.959290,225.532654 724.258179,226.869858 723.482849,228.162567   C718.379944,236.670410 713.429260,245.276566 708.078308,253.625931   C705.272461,258.003937 701.755615,261.926239 698.172913,266.652283  M295.541565,463.072937   C294.627075,464.227081 293.939575,465.766205 292.756042,466.464081   C288.996185,468.681030 289.598877,471.493469 291.203552,475.874542   C296.963501,467.067505 302.149628,459.137848 307.335754,451.208160   C306.838867,450.857056 306.341949,450.505920 305.845032,450.154816   C302.562744,454.270294 299.280426,458.385773 295.541565,463.072937  M748.625854,155.634735   C748.744507,150.473938 750.394348,145.109665 747.367554,140.366913   C746.747986,140.388763 746.128479,140.410599 745.508972,140.432449   C745.508972,147.096863 745.508972,153.761261 745.508972,161.271454   C746.496643,159.527649 747.384399,157.960190 748.625854,155.634735  M620.912354,330.524200   C624.865906,328.091827 628.819397,325.659424 632.772949,323.227051   C625.318604,323.644257 617.167480,328.069885 616.409424,331.722168   C617.782043,331.397644 619.008179,331.107758 620.912354,330.524200  M639.664917,320.147400   C642.362244,318.407623 646.445740,318.018250 646.955078,314.146881   C646.489746,313.585571 646.024414,313.024231 645.559082,312.462921   C642.286316,314.693756 639.013550,316.924561 635.015442,319.649841   C636.792542,320.486084 637.195496,320.813843 637.614624,320.835968   C638.077148,320.860352 638.554443,320.604462 639.664917,320.147400  M380.348053,369.684052   C384.280396,371.404236 388.692841,369.106628 389.578094,363.325043   C386.589905,365.232025 383.601715,367.139038 380.348053,369.684052  M744.773010,95.518127   C746.677002,91.845299 745.572998,85.606895 741.249695,83.926369   C742.220581,87.651031 743.191406,91.375694 744.773010,95.518127  M584.620667,342.404175   C589.527283,344.160889 593.120422,341.901642 596.189270,337.926178   C592.315674,339.175873 588.442139,340.425568 584.620667,342.404175  M229.660126,558.952332   C229.740082,559.506287 229.860580,560.547546 229.894241,560.544800   C232.397766,560.336609 237.200302,554.437988 237.400391,550.375000   C234.596664,553.466614 232.342804,555.951843 229.660126,558.952332  M746.992493,128.479034   C747.114929,130.819168 744.448975,133.772552 748.440308,135.507034   C748.440308,132.013931 748.440308,128.805756 748.440308,125.597572   C748.148132,125.580208 747.855957,125.562851 747.563782,125.545486   C747.377747,126.261017 747.191711,126.976547 746.992493,128.479034  M310.864197,443.268402   C309.978882,444.591522 309.093567,445.914612 308.208221,447.237732   C308.709106,447.553223 309.209991,447.868713 309.710876,448.184204   C311.516907,445.485931 313.322968,442.787628 315.128998,440.089355   C314.636871,439.738007 314.144745,439.386627 313.652618,439.035278   C312.821106,440.235779 311.989624,441.436310 310.864197,443.268402  M508.547485,355.000519   C507.115417,355.450592 505.683350,355.900696 504.251282,356.350800   C504.410492,356.945801 504.569672,357.540802 504.728882,358.135803   C507.330017,357.674622 509.931183,357.213409 512.532349,356.752197   C512.503906,356.331024 512.475525,355.909882 512.447144,355.488739   C511.412323,355.325958 510.377472,355.163208 508.547485,355.000519  M329.914673,421.407745   C330.917328,419.531036 331.919983,417.654327 332.922638,415.777618   C332.525269,415.516205 332.127869,415.254791 331.730469,414.993378   C330.297791,416.817535 328.865082,418.641693 327.432404,420.465881   C328.059418,420.894165 328.686432,421.322479 329.914673,421.407745  M609.491699,335.223633   C610.265137,334.513214 611.038574,333.802765 611.812012,333.092346   C611.567261,332.760162 611.322510,332.427979 611.077759,332.095795   C609.151306,332.866028 607.224915,333.636261 605.298462,334.406494   C605.369751,334.836426 605.441040,335.266327 605.512329,335.696228   C606.626221,335.646332 607.740173,335.596405 609.491699,335.223633  M409.550629,359.147797   C408.763824,359.669495 407.977020,360.191193 407.190216,360.712891   C407.698242,361.105530 408.206238,361.498169 408.714264,361.890808   C409.215027,361.040405 409.715820,360.190033 409.550629,359.147797  M323.573181,429.866852   C324.371368,428.914795 325.169586,427.962708 325.967773,427.010620   C325.415863,426.689484 324.863983,426.368378 324.312103,426.047241   C323.848206,427.285217 323.384308,428.523224 323.573181,429.866852  M572.116394,345.363678   C570.851074,345.788544 569.585754,346.213409 568.320435,346.638275   C568.542908,347.109100 568.765381,347.579895 568.987854,348.050720   C570.183350,347.299011 571.378845,346.547333 572.116394,345.363678  M362.090820,381.594666   C361.991364,382.247528 361.891876,382.900391 361.792419,383.553253   C362.331268,383.329254 362.870148,383.105255 363.408997,382.881256   C363.145721,382.361847 362.882446,381.842407 362.090820,381.594666  z"/>
<path fill="#F8F2FB" opacity="1.000000" stroke="none" d=" M1876.989746,340.533569   C1875.990845,339.869629 1874.174072,338.756287 1874.146484,337.600433   C1874.036743,332.977905 1871.991821,330.365326 1868.185791,327.598114   C1864.828613,325.157288 1859.826172,322.458893 1861.537720,316.157196   C1862.127930,313.983978 1860.742798,311.589783 1857.454224,311.977417   C1855.182129,312.245239 1852.882812,312.282837 1851.295044,312.380402   C1848.662109,308.840149 1846.361816,305.599060 1843.892090,302.492889   C1842.761597,301.071136 1841.449463,299.045258 1839.958496,298.784027   C1832.091064,297.405548 1828.727173,290.930878 1824.026245,285.824890   C1822.765991,284.455719 1820.097778,284.382660 1817.212891,283.429504   C1816.873291,282.256134 1816.195190,279.913635 1815.442505,277.313110   C1813.894897,277.882416 1812.448975,278.414276 1810.146118,279.261383   C1810.359009,276.620026 1810.517944,274.648926 1810.772705,271.488281   C1807.534180,272.652161 1804.906006,273.596619 1800.953491,275.017059   C1801.382324,270.729767 1801.775757,266.795593 1802.212524,262.428162   C1799.794434,261.734589 1796.862549,260.564270 1793.821899,260.085663   C1785.969971,258.849823 1784.648315,257.675323 1783.605347,249.612900   C1781.685547,249.013016 1779.430664,248.729080 1777.698364,247.625229   C1776.457764,246.834747 1775.695679,245.028656 1775.133301,243.521484   C1774.677734,242.300095 1774.837524,240.849121 1774.724365,239.499969   C1773.296997,240.004288 1771.860718,240.484818 1770.446167,241.022736   C1769.710449,241.302490 1769.013550,241.683624 1767.992798,242.162781   C1767.036255,240.194626 1766.272827,238.406281 1765.319336,236.725708   C1764.448242,235.190323 1763.371704,233.771515 1762.291748,232.161392   C1760.991577,234.090759 1759.939575,235.651947 1758.109375,238.367828   C1756.737183,231.770355 1754.565918,227.554626 1748.332153,227.834381   C1746.823975,221.565552 1736.649902,221.472656 1737.829224,213.088455   C1737.948364,212.241241 1735.784546,210.193756 1734.690796,210.201508   C1728.770386,210.243393 1728.470337,209.999298 1730.751953,204.352234   C1727.399536,201.828400 1724.015747,199.280823 1719.771484,196.085571   C1719.885986,193.251587 1716.867920,192.386566 1713.693481,193.369797   C1709.468872,194.678268 1707.528931,193.154434 1706.122559,189.446365   C1705.490845,187.781097 1704.146729,186.394241 1703.186890,184.843292   C1701.925293,182.804657 1700.723999,180.728668 1699.496704,178.668808   C1699.891602,178.307159 1700.286499,177.945511 1700.681519,177.583862   C1697.003540,177.008347 1693.325562,176.432816 1690.452271,175.983231   C1689.248535,172.895020 1688.288086,170.430878 1687.119751,167.433594   C1685.514282,169.602295 1684.666626,170.747223 1683.819092,171.892181   C1683.213013,170.395386 1682.005005,168.840805 1682.141724,167.415222   C1682.348022,165.264648 1683.493286,163.204193 1684.439087,160.543716   C1682.214966,158.471390 1679.551392,158.251678 1677.182373,160.958160   C1674.712646,163.779709 1672.944336,163.747742 1671.123779,160.441757   C1670.673218,159.623398 1669.748901,159.055557 1669.012085,158.406937   C1665.531738,155.342606 1662.028442,152.293823 1665.902588,147.493851   C1662.122192,146.328506 1658.540771,145.412003 1655.121826,144.078873   C1653.742065,143.540878 1652.671753,142.138885 1651.541016,141.046738   C1649.669800,139.238876 1647.893188,137.332809 1646.016602,135.530731   C1645.198730,134.745285 1643.605957,134.239975 1643.436401,133.393005   C1642.434204,128.386932 1639.860229,128.424545 1636.311401,131.484924   C1633.910522,127.569298 1631.811890,124.146500 1629.713257,120.723701   C1629.489868,120.900223 1629.266602,121.076752 1629.043213,121.253273   C1629.122192,119.608856 1629.201172,117.964432 1629.280151,116.320015   C1627.574829,116.242416 1625.868286,116.186310 1624.164673,116.081612   C1622.175781,115.959389 1619.614502,116.476311 1618.381104,115.436012   C1617.367188,114.580933 1617.931030,111.855118 1617.697632,108.588066   C1616.421509,108.378929 1614.069824,107.971962 1611.709229,107.624969   C1611.241821,107.556244 1610.414551,107.921936 1610.302612,107.743309   C1608.024414,104.104347 1605.608398,100.522034 1603.724976,96.680817   C1603.025635,95.254578 1603.611938,93.197945 1603.611938,91.428780   C1603.093750,91.358200 1602.575562,91.287613 1602.057373,91.217033   C1601.186523,92.675049 1600.315674,94.133064 1599.535156,95.439819   C1596.377197,94.715462 1593.433716,94.040321 1589.650269,93.172501   C1591.315430,91.380127 1592.784912,90.112099 1593.840332,88.562065   C1594.671997,87.340790 1594.993164,85.772011 1595.541138,84.357559   C1593.896606,84.125984 1592.148071,83.423714 1590.628662,83.758980   C1587.265381,84.501007 1583.889648,86.563805 1581.494019,82.170715   C1582.033081,80.453377 1582.587280,78.687958 1583.141479,76.922539   C1582.812134,76.745094 1582.482666,76.567650 1582.153320,76.390198   C1581.270630,77.516434 1580.387939,78.642670 1579.293945,80.038460   C1576.109985,77.432961 1572.180664,76.334740 1571.484009,71.076706   C1571.207275,68.988754 1566.872437,67.438499 1564.385254,65.643440   C1564.054932,65.938858 1563.724609,66.234276 1563.394409,66.529694   C1563.339233,65.596100 1563.005127,64.570160 1563.278198,63.745205   C1564.345215,60.520916 1562.509277,59.429832 1559.909180,59.046371   C1554.690308,58.276722 1549.436646,57.734375 1544.230957,56.891460   C1543.407349,56.758110 1542.758667,55.544495 1542.012573,54.422928   C1590.350098,54.011482 1638.704346,54.007450 1687.578125,54.337418   C1689.066772,54.448772 1690.035767,54.226135 1691.004883,54.003502   C1696.704712,54.003548 1702.404419,54.003586 1708.589600,54.302326   C1709.482910,54.919994 1709.891113,55.238960 1710.299072,55.557907   C1710.534302,55.040257 1710.769531,54.522617 1711.004883,54.004997   C1713.073364,54.331654 1715.141968,54.658291 1717.898804,55.289131   C1719.397583,55.728401 1720.204834,55.956581 1721.019043,55.984905   C1740.691284,56.669395 1760.361938,57.425213 1780.038818,57.937794   C1785.300415,58.074856 1788.619873,60.790325 1790.407715,65.127602   C1792.225342,69.536659 1795.193237,71.209114 1799.614014,70.984932   C1802.586426,70.834183 1805.551636,70.540741 1808.975586,70.275917   C1803.977783,78.311874 1804.032104,79.928780 1809.031250,83.590782   C1809.798584,82.379517 1810.570557,81.160942 1812.076416,78.783829   C1814.104858,85.994370 1817.794922,90.319183 1823.719971,92.630539   C1824.402466,92.896812 1824.863037,94.592613 1824.856689,95.622040   C1824.818848,101.689331 1828.002075,103.542053 1833.686035,101.029305   C1834.854858,100.512611 1838.002197,101.420174 1838.068115,101.944328   C1838.577271,105.989281 1842.499878,105.840454 1844.569702,107.838188   C1845.949219,109.169830 1847.375610,110.818024 1847.908813,112.587364   C1849.121460,116.612061 1851.400513,118.591461 1855.671021,118.728271   C1857.450684,118.785294 1860.197998,119.388252 1860.755249,120.568993   C1861.978882,123.161148 1862.086670,126.279984 1862.730225,129.596512   C1864.560303,129.496429 1867.145630,133.807663 1870.567627,130.287704   C1870.623535,130.230103 1873.605713,132.078659 1873.770874,133.243698   C1874.246460,136.597061 1873.943237,140.056717 1874.005737,143.473511   C1874.326904,161.025284 1874.625977,178.577759 1875.083008,196.126068   C1875.117065,197.434235 1876.330200,198.711700 1876.995117,200.003448   C1876.995361,200.751724 1876.995605,201.499985 1876.697021,202.661957   C1876.079712,203.483536 1875.760986,203.891418 1875.442261,204.299255   C1875.959961,204.533936 1876.477539,204.768677 1876.995117,205.003418   C1876.995239,206.715866 1876.995361,208.428268 1876.619873,210.647842   C1874.678467,213.636902 1873.487305,216.077744 1876.995117,218.003387   C1876.994873,258.690491 1876.994629,299.377563 1876.989746,340.533569  M1674.528320,154.314590   C1673.979980,153.975174 1673.431641,153.635773 1672.883179,153.296432   C1672.748169,153.571259 1672.613037,153.846085 1672.477905,154.120895   C1673.014893,154.326370 1673.551758,154.531845 1674.528320,154.314590  M1713.202515,189.609680   C1713.206665,189.214645 1713.210815,188.819595 1713.214966,188.424561   C1713.051025,188.423050 1712.744873,188.410629 1712.744019,188.421646   C1712.713867,188.814728 1712.712158,189.210007 1713.202515,189.609680  z"/>
<path fill="#FCFAFD" opacity="1.000000" stroke="none" d=" M191.575653,72.002930   C191.703995,72.564819 191.459778,73.572990 191.093994,73.619209   C181.680481,74.808670 179.479965,82.092468 176.780350,89.528084   C174.113327,96.873924 170.106857,103.721832 167.110001,110.962830   C164.144165,118.128838 161.795532,125.547661 159.009949,132.791672   C156.311584,139.808792 153.393082,146.741104 150.587250,153.717102   C148.076523,159.959412 144.348633,166.037384 143.444702,172.507385   C142.576752,178.719803 139.639877,183.616776 137.350449,188.990692   C133.317032,198.458344 128.772675,207.731232 125.204582,217.367920   C121.470566,227.452789 118.303566,237.781296 115.515968,248.171585   C113.483658,255.746643 112.491371,263.599121 110.977348,271.316528   C110.741936,272.516510 110.195648,273.655518 109.398849,274.913635   C109.003258,237.365082 108.831543,199.724442 109.092995,162.086807   C109.184563,148.905151 110.100456,135.711487 111.157486,122.564934   C111.478867,118.567940 112.583488,113.962738 114.972710,110.931282   C121.663193,102.442360 121.734489,91.454620 126.903923,82.403908   C130.947327,75.324654 131.016922,73.277344 139.579315,73.014244   C152.192184,72.626694 164.807205,72.300606 177.422821,72.015076   C181.995132,71.911598 186.571777,72.000084 191.575653,72.002930  z"/>
<path fill="#FCFAFD" opacity="1.000000" stroke="none" d=" M1876.997192,199.534454   C1876.330200,198.711700 1875.117065,197.434235 1875.083008,196.126068   C1874.625977,178.577759 1874.326904,161.025284 1874.005737,143.473511   C1873.943237,140.056717 1874.246460,136.597061 1873.770874,133.243698   C1873.605713,132.078659 1870.623535,130.230103 1870.567627,130.287704   C1867.145630,133.807663 1864.560303,129.496429 1862.730225,129.596512   C1862.086670,126.279984 1861.978882,123.161148 1860.755249,120.568993   C1860.197998,119.388252 1857.450684,118.785294 1855.671021,118.728271   C1851.400513,118.591461 1849.121460,116.612061 1847.908813,112.587364   C1847.375610,110.818024 1845.949219,109.169830 1844.569702,107.838188   C1842.499878,105.840454 1838.577271,105.989281 1838.068115,101.944328   C1838.002197,101.420174 1834.854858,100.512611 1833.686035,101.029305   C1828.002075,103.542053 1824.818848,101.689331 1824.856689,95.622040   C1824.863037,94.592613 1824.402466,92.896812 1823.719971,92.630539   C1817.794922,90.319183 1814.104858,85.994370 1812.076416,78.783829   C1810.570557,81.160942 1809.798584,82.379517 1809.031250,83.590782   C1804.032104,79.928780 1803.977783,78.311874 1808.975586,70.275917   C1805.551636,70.540741 1802.586426,70.834183 1799.614014,70.984932   C1795.193237,71.209114 1792.225342,69.536659 1790.407715,65.127602   C1788.619873,60.790325 1785.300415,58.074856 1780.038818,57.937794   C1760.361938,57.425213 1740.691284,56.669395 1721.019043,55.984905   C1720.204834,55.956581 1719.397583,55.728401 1718.293579,55.295635   C1719.727539,54.665203 1721.454834,54.043606 1723.182739,54.041771   C1772.319824,53.989628 1821.456909,53.997475 1870.593994,54.002754   C1876.978882,54.003441 1876.992065,54.021553 1876.997192,60.414558   C1877.006958,72.573891 1877.003296,84.733246 1876.998901,96.892593   C1876.995117,107.386116 1876.973999,117.879646 1876.975342,128.373169   C1876.978271,151.937271 1876.990601,175.501358 1876.997192,199.534454  M1829.081543,94.561600   C1830.072510,95.108421 1831.063477,95.655243 1832.054321,96.202065   C1832.241699,95.430878 1832.428955,94.659683 1832.616211,93.888496   C1831.499512,93.888496 1830.382935,93.888496 1829.081543,94.561600  M1853.347168,112.782578   C1853.766235,113.775734 1854.185303,114.768890 1854.604370,115.762039   C1855.128784,115.379082 1855.653076,114.996124 1856.177490,114.613167   C1855.408936,113.843895 1854.640259,113.074615 1853.347168,112.782578  M1854.569336,109.296738   C1854.296265,109.010567 1854.023071,108.724403 1853.750000,108.438225   C1853.631592,108.551476 1853.404053,108.756989 1853.410645,108.764702   C1853.665405,109.066505 1853.941650,109.350250 1854.569336,109.296738  z"/>
<path fill="#FCFAFD" opacity="1.000000" stroke="none" d=" M1876.997192,217.565430   C1873.487305,216.077744 1874.678467,213.636902 1876.619629,211.075821   C1876.996460,213.040253 1876.997803,215.083862 1876.997192,217.565430  z"/>
<path fill="#FCFAFD" opacity="1.000000" stroke="none" d=" M1690.628662,54.002052   C1690.035767,54.226135 1689.066772,54.448772 1688.046387,54.337540   C1688.747559,54.002647 1689.500000,54.001633 1690.628662,54.002052  z"/>
<path fill="#FCFAFD" opacity="1.000000" stroke="none" d=" M1710.669922,54.003216   C1710.769531,54.522617 1710.534302,55.040257 1710.299072,55.557907   C1709.891113,55.238960 1709.482910,54.919994 1709.034912,54.302574   C1709.441772,54.003231 1709.888306,54.002342 1710.669922,54.003216  z"/>
<path fill="#FCFAFD" opacity="1.000000" stroke="none" d=" M1876.996826,204.668945   C1876.477539,204.768677 1875.959961,204.533936 1875.442261,204.299255   C1875.760986,203.891418 1876.079712,203.483536 1876.696777,203.036072   C1876.996338,203.442490 1876.997437,203.888474 1876.996826,204.668945  z"/>
<path fill="#F4EAF8" opacity="1.000000" stroke="none" d=" M179.162628,397.408936   C174.087067,397.970184 169.286469,399.031006 164.664185,398.509949   C160.494141,398.039886 160.019104,394.163544 160.318466,391.237122   C167.958389,391.880310 175.273895,392.496185 183.610382,393.197998   C182.040421,394.739807 180.777832,395.979736 179.162628,397.408936  z"/>
<path fill="#FFFFFF" opacity="1.000000" stroke="none" d=" M698.366333,266.353302   C701.755615,261.926239 705.272461,258.003937 708.078308,253.625931   C713.429260,245.276566 718.379944,236.670410 723.482849,228.162567   C724.258179,226.869858 724.959290,225.532654 725.694702,224.216003   C726.447754,224.658615 727.200806,225.101212 727.953918,225.543808   C727.605774,227.210449 727.670471,229.126678 726.839355,230.501358   C722.836365,237.122681 718.845947,243.778122 714.375854,250.084641   C706.887817,260.649017 701.147766,272.532501 690.222473,280.532318   C685.750000,283.807129 682.762573,289.045288 678.488525,292.669556   C669.928833,299.927826 661.794800,307.943512 650.966980,311.916931   C650.635864,311.493896 650.304810,311.070862 649.973755,310.647827   C652.668335,308.619263 655.359863,306.586639 658.058350,304.563293   C660.896057,302.435547 664.018250,300.601135 666.533447,298.144379   C677.177856,287.747223 687.642517,277.166138 698.366333,266.353302  z"/>
<path fill="#FFFFFF" opacity="1.000000" stroke="none" d=" M295.769836,462.787109   C299.280426,458.385773 302.562744,454.270294 305.845032,450.154816   C306.341949,450.505920 306.838867,450.857056 307.335754,451.208160   C302.149628,459.137848 296.963501,467.067505 291.203552,475.874542   C289.598877,471.493469 288.996185,468.681030 292.756042,466.464081   C293.939575,465.766205 294.627075,464.227081 295.769836,462.787109  z"/>
<path fill="#FFFFFF" opacity="1.000000" stroke="none" d=" M748.448975,156.013733   C747.384399,157.960190 746.496643,159.527649 745.508972,161.271454   C745.508972,153.761261 745.508972,147.096863 745.508972,140.432449   C746.128479,140.410599 746.747986,140.388763 747.367554,140.366913   C750.394348,145.109665 748.744507,150.473938 748.448975,156.013733  z"/>
<path fill="#FFFFFF" opacity="1.000000" stroke="none" d=" M620.573303,330.671021   C619.008179,331.107758 617.782043,331.397644 616.409424,331.722168   C617.167480,328.069885 625.318604,323.644257 632.772949,323.227051   C628.819397,325.659424 624.865906,328.091827 620.573303,330.671021  z"/>
<path fill="#FFFFFF" opacity="1.000000" stroke="none" d=" M639.345093,320.309021   C638.554443,320.604462 638.077148,320.860352 637.614624,320.835968   C637.195496,320.813843 636.792542,320.486084 635.015442,319.649841   C639.013550,316.924561 642.286316,314.693756 645.559082,312.462921   C646.024414,313.024231 646.489746,313.585571 646.955078,314.146881   C646.445740,318.018250 642.362244,318.407623 639.345093,320.309021  z"/>
<path fill="#FFFFFF" opacity="1.000000" stroke="none" d=" M380.480774,369.365051   C383.601715,367.139038 386.589905,365.232025 389.578094,363.325043   C388.692841,369.106628 384.280396,371.404236 380.480774,369.365051  z"/>
<path fill="#FFFFFF" opacity="1.000000" stroke="none" d=" M744.467651,95.309242   C743.191406,91.375694 742.220581,87.651031 741.249695,83.926369   C745.572998,85.606895 746.677002,91.845299 744.467651,95.309242  z"/>
<path fill="#FFFFFF" opacity="1.000000" stroke="none" d=" M584.594604,342.039734   C588.442139,340.425568 592.315674,339.175873 596.189270,337.926178   C593.120422,341.901642 589.527283,344.160889 584.594604,342.039734  z"/>
<path fill="#FFFFFF" opacity="1.000000" stroke="none" d=" M229.874542,558.694702   C232.342804,555.951843 234.596664,553.466614 237.400391,550.375000   C237.200302,554.437988 232.397766,560.336609 229.894241,560.544800   C229.860580,560.547546 229.740082,559.506287 229.874542,558.694702  z"/>
<path fill="#FFFFFF" opacity="1.000000" stroke="none" d=" M746.999084,128.085556   C747.191711,126.976547 747.377747,126.261017 747.563782,125.545486   C747.855957,125.562851 748.148132,125.580208 748.440308,125.597572   C748.440308,128.805756 748.440308,132.013931 748.440308,135.507034   C744.448975,133.772552 747.114929,130.819168 746.999084,128.085556  z"/>
<path fill="#FFFFFF" opacity="1.000000" stroke="none" d=" M311.011169,442.952606   C311.989624,441.436310 312.821106,440.235779 313.652618,439.035278   C314.144745,439.386627 314.636871,439.738007 315.128998,440.089355   C313.322968,442.787628 311.516907,445.485931 309.710876,448.184204   C309.209991,447.868713 308.709106,447.553223 308.208221,447.237732   C309.093567,445.914612 309.978882,444.591522 311.011169,442.952606  z"/>
<path fill="#FFFFFF" opacity="1.000000" stroke="none" d=" M508.945068,355.000488   C510.377472,355.163208 511.412323,355.325958 512.447144,355.488739   C512.475525,355.909882 512.503906,356.331024 512.532349,356.752197   C509.931183,357.213409 507.330017,357.674622 504.728882,358.135803   C504.569672,357.540802 504.410492,356.945801 504.251282,356.350800   C505.683350,355.900696 507.115417,355.450592 508.945068,355.000488  z"/>
<path fill="#FFFFFF" opacity="1.000000" stroke="none" d=" M329.614075,421.579254   C328.686432,421.322479 328.059418,420.894165 327.432373,420.465881   C328.865082,418.641693 330.297791,416.817535 331.730469,414.993378   C332.127869,415.254791 332.525269,415.516205 332.922638,415.777618   C331.919983,417.654327 330.917328,419.531036 329.614075,421.579254  z"/>
<path fill="#FFFFFF" opacity="1.000000" stroke="none" d=" M609.172852,335.385071   C607.740173,335.596405 606.626221,335.646332 605.512329,335.696228   C605.441040,335.266327 605.369751,334.836426 605.298462,334.406494   C607.224915,333.636261 609.151306,332.866028 611.077759,332.095795   C611.322510,332.427979 611.567261,332.760162 611.812012,333.092346   C611.038574,333.802765 610.265137,334.513214 609.172852,335.385071  z"/>
<path fill="#FFFFFF" opacity="1.000000" stroke="none" d=" M409.883606,359.243713   C409.715820,360.190033 409.215027,361.040405 408.714264,361.890808   C408.206238,361.498169 407.698242,361.105530 407.190216,360.712891   C407.977020,360.191193 408.763824,359.669495 409.883606,359.243713  z"/>
<path fill="#FFFFFF" opacity="1.000000" stroke="none" d=" M323.246826,429.814026   C323.384308,428.523224 323.848206,427.285217 324.312103,426.047241   C324.863983,426.368378 325.415863,426.689484 325.967773,427.010620   C325.169586,427.962708 324.371368,428.914795 323.246826,429.814026  z"/>
<path fill="#FFFFFF" opacity="1.000000" stroke="none" d=" M572.345337,345.579651   C571.378845,346.547333 570.183350,347.299011 568.987854,348.050720   C568.765381,347.579895 568.542908,347.109100 568.320435,346.638275   C569.585754,346.213409 570.851074,345.788544 572.345337,345.579651  z"/>
<path fill="#FFFFFF" opacity="1.000000" stroke="none" d=" M362.354980,381.458832   C362.882446,381.842407 363.145721,382.361847 363.408997,382.881256   C362.870148,383.105255 362.331268,383.329254 361.792419,383.553253   C361.891876,382.900391 361.991364,382.247528 362.354980,381.458832  z"/>
<path fill="#F2F2FD" opacity="1.000000" stroke="none" d=" M1674.308594,154.525955   C1673.551758,154.531845 1673.014893,154.326370 1672.477905,154.120911   C1672.613037,153.846085 1672.748169,153.571259 1672.883179,153.296402   C1673.431641,153.635773 1673.979980,153.975174 1674.308594,154.525955  z"/>
<path fill="#F2F2FD" opacity="1.000000" stroke="none" d=" M1712.954590,189.607330   C1712.712158,189.210007 1712.713867,188.814728 1712.744019,188.421646   C1712.744873,188.410629 1713.051025,188.423050 1713.214844,188.424561   C1713.210815,188.819595 1713.206665,189.214645 1712.954590,189.607330  z"/>
<path fill="#F8F2FB" opacity="1.000000" stroke="none" d=" M1829.173950,94.225052   C1830.382935,93.888496 1831.499512,93.888496 1832.616211,93.888496   C1832.428955,94.659683 1832.241699,95.430878 1832.054321,96.202065   C1831.063477,95.655243 1830.072510,95.108421 1829.173950,94.225052  z"/>
<path fill="#F8F2FB" opacity="1.000000" stroke="none" d=" M1853.609375,112.543961   C1854.640259,113.074615 1855.408936,113.843895 1856.177490,114.613167   C1855.653076,114.996124 1855.128784,115.379082 1854.604370,115.762039   C1854.185303,114.768890 1853.766235,113.775734 1853.609375,112.543961  z"/>
<path fill="#F8F2FB" opacity="1.000000" stroke="none" d=" M1854.392090,109.466568   C1853.941650,109.350250 1853.665405,109.066505 1853.410645,108.764702   C1853.404053,108.756989 1853.631592,108.551476 1853.750000,108.438232   C1854.023071,108.724403 1854.296265,109.010567 1854.392090,109.466568  z"/>
</svg>